<svg width="179" height="39" viewBox="0 0 179 39" fill="none" xmlns="http://www.w3.org/2000/svg">
<path d="M17.4794 5.00391H12.1875V14.4868H17.4794V5.00391Z" fill="white"/>
<path d="M30 0H24V36H30V0Z" fill="white"/>
<path d="M25.2285 5.29191V0L12.1851 0L12.1851 5.29191L25.2285 5.29191Z" fill="white"/>
<path d="M12.1866 30.8662H17.4785V21.3833H12.1866V30.8662Z" fill="white"/>
<path d="M0 36H5L5 0H0L0 36Z" fill="white"/>
<path d="M4.43652 30.5797V35.8716H17.4799V30.5797H4.43652Z" fill="white"/>
<path d="M59.1737 18.4167C59.1737 24.6528 54.4636 28.687 48.6352 28.687C42.1205 28.687 37.1943 23.8271 37.1943 17.9708C37.1943 12.118 42.1309 7.19189 48.4958 7.19189C51.1052 7.23022 54.1222 8.33807 55.8118 9.9023L52.7948 14.0376C51.6487 12.9681 50.0078 12.2817 48.4923 12.2817C45.437 12.2817 42.7545 14.7901 42.7545 17.9569C42.7545 20.8345 45.0573 23.632 48.8512 23.632C51.3317 23.632 53.1014 22.4371 53.1781 20.4757H48.4819V16.417H59.0065C59.1075 17.1068 59.1737 17.7687 59.1737 18.4167Z" fill="white"/>
<path d="M60.9512 17.9708C60.9512 11.8114 65.839 7.13965 72.2143 7.13965C78.5897 7.13965 83.4775 11.8114 83.4775 17.9708C83.4775 24.0779 78.5897 28.7253 72.2004 28.7253C65.825 28.7253 60.9512 24.0814 60.9512 17.9708ZM77.9661 17.936C77.9661 14.7657 75.4717 12.3236 72.2143 12.3236C68.957 12.3236 66.4626 14.7657 66.4626 17.936C66.4626 21.0923 68.957 23.524 72.2143 23.524C75.4717 23.524 77.9661 21.0888 77.9661 17.936Z" fill="white"/>
<path d="M103.122 7.69043V28.2066H97.6874V20.483H91.5907V28.2066H86.1455V7.69043H91.5907V15.3897H97.6874V7.69043H103.122Z" fill="white"/>
<path d="M119.826 25.8131H112.166L111.12 28.2065H105.163L114.695 7.43604H117.28L126.825 28.2065H120.858L119.826 25.8131ZM118.095 21.8277L115.994 16.9678L113.883 21.8277H118.095Z" fill="white"/>
<path d="M129.23 19.3473L122.903 7.69043H129.077L131.94 13.6338L134.79 7.69043H140.974L134.637 19.3473V28.2031H129.23V19.3473Z" fill="white"/>
<path d="M139.838 17.9467C139.838 11.8779 144.75 7.20605 151.139 7.20605C153.787 7.24438 156.623 8.401 158.724 10.3101L155.592 14.3305C154.331 13.1843 152.665 12.4353 151.15 12.4353C147.994 12.4353 145.36 14.8391 145.36 17.985C145.36 21.1657 148.108 23.5068 151.035 23.5068C152.752 23.5068 154.292 22.6916 155.616 21.5071L158.72 25.6424C156.759 27.4226 154.153 28.6594 151.035 28.6594C145.248 28.6629 139.838 24.3882 139.838 17.9467Z" fill="white"/>
<path d="M178.018 7.69043V28.2066H172.583V20.483H166.486V28.2066H161.041V7.69043H166.486V15.3897H172.583V7.69043H178.018Z" fill="white"/>
<path d="M146.557 37.4906C146.557 37.4259 146.574 37.3741 146.61 37.3353C146.646 37.2964 146.699 37.277 146.77 37.277H148.052C148.107 37.277 148.157 37.2964 148.202 37.3353C148.251 37.3741 148.275 37.4259 148.275 37.4906V38.6655C148.275 38.7237 148.256 38.7755 148.217 38.8208C148.181 38.8661 148.126 38.8888 148.052 38.8888H146.77C146.628 38.8888 146.557 38.8143 146.557 38.6655V37.4906Z" fill="white"/>
<path d="M153.394 36.9906C153.439 36.9582 153.481 36.9388 153.52 36.9323C153.562 36.9226 153.594 36.9178 153.617 36.9178C153.672 36.9178 153.722 36.9291 153.767 36.9517C153.813 36.9744 153.86 37.0229 153.908 37.0974L154.452 37.9178C154.468 37.9437 154.483 37.9729 154.496 38.0052C154.512 38.0376 154.52 38.0635 154.52 38.0829C154.52 38.1573 154.496 38.2188 154.447 38.2674C154.402 38.3127 154.352 38.3531 154.297 38.3887C154.031 38.5732 153.74 38.7221 153.423 38.8354C153.109 38.9454 152.775 39.0004 152.423 39.0004C152.131 39.0004 151.85 38.9632 151.578 38.8888C151.309 38.8143 151.059 38.7091 150.826 38.5732C150.592 38.434 150.379 38.269 150.185 38.078C149.991 37.8838 149.825 37.6686 149.69 37.4324C149.554 37.1961 149.447 36.942 149.369 36.6702C149.295 36.3951 149.257 36.1086 149.257 35.8109C149.257 35.5131 149.295 35.2267 149.369 34.9516C149.447 34.6765 149.554 34.4224 149.69 34.1894C149.825 33.9532 149.991 33.7395 150.185 33.5486C150.379 33.3544 150.592 33.1893 150.826 33.0534C151.059 32.9175 151.309 32.8123 151.578 32.7379C151.85 32.6634 152.131 32.6262 152.423 32.6262C152.775 32.6262 153.101 32.6731 153.399 32.767C153.7 32.8608 153.981 33 154.243 33.1845L154.229 33.1699C154.3 33.212 154.357 33.2622 154.399 33.3204C154.441 33.3754 154.462 33.445 154.462 33.5292C154.462 33.5874 154.442 33.6473 154.403 33.7088L153.971 34.4419C153.881 34.6004 153.771 34.6797 153.641 34.6797C153.612 34.6797 153.577 34.6733 153.534 34.6603C153.492 34.6441 153.445 34.6182 153.394 34.5826C153.251 34.4888 153.098 34.4127 152.932 34.3545C152.771 34.293 152.597 34.2622 152.413 34.2622C152.209 34.2622 152.021 34.3043 151.85 34.3885C151.678 34.4694 151.531 34.581 151.408 34.7234C151.288 34.8658 151.194 35.0309 151.127 35.2186C151.059 35.4063 151.025 35.6038 151.025 35.8109C151.025 36.0245 151.059 36.2252 151.127 36.4129C151.194 36.5974 151.288 36.7576 151.408 36.8935C151.531 37.0294 151.678 37.1378 151.85 37.2188C152.021 37.2964 152.209 37.3353 152.413 37.3353C152.597 37.3353 152.771 37.3029 152.932 37.2382C153.094 37.1734 153.248 37.0909 153.394 36.9906Z" fill="white"/>
<path d="M155.25 35.8109C155.25 35.5131 155.287 35.2267 155.362 34.9516C155.439 34.6765 155.546 34.4224 155.682 34.1894C155.821 33.9532 155.986 33.7395 156.177 33.5486C156.371 33.3544 156.587 33.1893 156.823 33.0534C157.059 32.9175 157.313 32.8123 157.585 32.7379C157.86 32.6634 158.147 32.6262 158.444 32.6262C158.885 32.6262 159.297 32.7087 159.682 32.8738C160.071 33.0356 160.407 33.2605 160.692 33.5486C160.98 33.8334 161.207 34.17 161.372 34.5584C161.54 34.9435 161.624 35.361 161.624 35.8109C161.624 36.1086 161.585 36.3951 161.508 36.6702C161.433 36.942 161.326 37.1961 161.187 37.4324C161.051 37.6686 160.886 37.8838 160.692 38.078C160.501 38.269 160.288 38.434 160.051 38.5732C159.815 38.7091 159.561 38.8143 159.289 38.8888C159.02 38.9632 158.739 39.0004 158.444 39.0004C158.147 39.0004 157.86 38.9632 157.585 38.8888C157.313 38.8143 157.059 38.7091 156.823 38.5732C156.587 38.434 156.371 38.269 156.177 38.078C155.986 37.8838 155.821 37.6686 155.682 37.4324C155.546 37.1961 155.439 36.942 155.362 36.6702C155.287 36.3951 155.25 36.1086 155.25 35.8109ZM157.022 35.8109C157.022 36.0245 157.054 36.2252 157.119 36.4129C157.187 36.5974 157.281 36.7576 157.401 36.8935C157.524 37.0294 157.671 37.1378 157.842 37.2188C158.017 37.2964 158.213 37.3353 158.43 37.3353C158.64 37.3353 158.83 37.2964 158.998 37.2188C159.169 37.1378 159.313 37.0294 159.43 36.8935C159.55 36.7576 159.64 36.5974 159.702 36.4129C159.766 36.2252 159.799 36.0245 159.799 35.8109C159.799 35.6038 159.766 35.4063 159.702 35.2186C159.64 35.0309 159.55 34.8658 159.43 34.7234C159.313 34.581 159.169 34.4694 158.998 34.3885C158.83 34.3043 158.64 34.2622 158.43 34.2622C158.213 34.2622 158.017 34.3043 157.842 34.3885C157.671 34.4694 157.524 34.581 157.401 34.7234C157.281 34.8658 157.187 35.0309 157.119 35.2186C157.054 35.4063 157.022 35.6038 157.022 35.8109Z" fill="white"/>
<path d="M162.666 37.4906C162.666 37.4259 162.684 37.3741 162.72 37.3353C162.755 37.2964 162.809 37.277 162.88 37.277H164.162C164.217 37.277 164.267 37.2964 164.312 37.3353C164.361 37.3741 164.385 37.4259 164.385 37.4906V38.6655C164.385 38.7237 164.365 38.7755 164.327 38.8208C164.291 38.8661 164.236 38.8888 164.162 38.8888H162.88C162.738 38.8888 162.666 38.8143 162.666 38.6655V37.4906Z" fill="white"/>
<path d="M171.28 38.8062C171.238 38.8418 171.193 38.8645 171.144 38.8742C171.099 38.8839 171.055 38.8888 171.013 38.8888H170.28C170.222 38.8888 170.172 38.8791 170.13 38.8596C170.088 38.837 170.052 38.8079 170.023 38.7723C169.994 38.7367 169.969 38.6962 169.95 38.6509C169.931 38.6056 169.914 38.5587 169.901 38.5101L169.799 38.0343C169.751 38.1347 169.67 38.2415 169.557 38.3548C169.443 38.4648 169.303 38.5667 169.134 38.6606C168.969 38.7545 168.778 38.8321 168.562 38.8936C168.345 38.9551 168.108 38.9859 167.853 38.9859C167.484 38.9859 167.157 38.9147 166.872 38.7723C166.587 38.6299 166.346 38.4357 166.149 38.1897C165.955 37.9437 165.807 37.6573 165.707 37.3304C165.607 37.0003 165.556 36.6491 165.556 36.2769V33.0971C165.556 32.9741 165.582 32.8819 165.634 32.8204C165.689 32.7557 165.775 32.7233 165.891 32.7233H167.013C167.152 32.7233 167.248 32.7476 167.299 32.7961C167.351 32.8414 167.377 32.932 167.377 33.068V36.2284C167.377 36.3676 167.403 36.5003 167.455 36.6265C167.51 36.7495 167.582 36.8595 167.673 36.9566C167.764 37.0505 167.869 37.1249 167.989 37.1799C168.112 37.2349 168.241 37.2624 168.377 37.2624C168.494 37.2624 168.62 37.243 168.756 37.2042C168.892 37.1654 169.018 37.1055 169.134 37.0246C169.251 36.9404 169.348 36.8336 169.426 36.7042C169.503 36.5747 169.542 36.4193 169.542 36.2381V33.0825C169.542 33.0275 169.552 32.9725 169.571 32.9175C169.594 32.8625 169.626 32.8204 169.668 32.7913C169.71 32.7654 169.749 32.7476 169.785 32.7379C169.824 32.7281 169.867 32.7233 169.916 32.7233H171.013C171.152 32.7233 171.253 32.7573 171.314 32.8252C171.376 32.8932 171.406 32.9838 171.406 33.0971V38.5295C171.406 38.591 171.392 38.6477 171.363 38.6994C171.337 38.7512 171.3 38.7917 171.251 38.8208L171.28 38.8062Z" fill="white"/>
<path d="M172.573 31.262C172.573 31.207 172.575 31.1568 172.578 31.1115C172.581 31.0662 172.594 31.0274 172.617 30.995C172.643 30.9627 172.681 30.9384 172.733 30.9222C172.785 30.9028 172.858 30.8931 172.952 30.8931H174.112C174.173 30.8931 174.224 30.9044 174.262 30.927C174.305 30.9465 174.337 30.9724 174.36 31.0047C174.385 31.0371 174.402 31.0727 174.408 31.1115C174.418 31.1471 174.423 31.1811 174.423 31.2135V34.806L176.17 32.8641C176.255 32.7702 176.355 32.7233 176.471 32.7233H177.962C178.14 32.7233 178.229 32.7929 178.229 32.932C178.229 32.9676 178.222 32.9968 178.209 33.0194C178.2 33.0421 178.177 33.0744 178.141 33.1165L176.146 35.2235L178.656 38.447H178.646C178.688 38.4891 178.717 38.5328 178.734 38.5781C178.753 38.6201 178.763 38.659 178.763 38.6946C178.763 38.769 178.742 38.8208 178.7 38.8499C178.661 38.8758 178.601 38.8888 178.52 38.8888H176.879C176.824 38.8888 176.772 38.8677 176.724 38.8257C176.675 38.7836 176.622 38.7205 176.564 38.6363L174.976 36.3886L174.437 36.9469V38.515C174.437 38.5409 174.432 38.5748 174.423 38.6169C174.416 38.659 174.4 38.7011 174.374 38.7431C174.351 38.782 174.319 38.816 174.277 38.8451C174.235 38.8742 174.18 38.8888 174.112 38.8888H172.893C172.835 38.8888 172.785 38.8742 172.743 38.8451C172.701 38.8127 172.667 38.7771 172.641 38.7383C172.618 38.6994 172.601 38.6638 172.588 38.6315C172.578 38.5959 172.573 38.5748 172.573 38.5684V31.262Z" fill="white"/>
</svg>
